<?xml version="1.0" encoding="UTF-8"?>
<svg version="1.1" xmlns="http://www.w3.org/2000/svg" width="660" height="660">
<path d="M0 0 C4.32113257 0.00460397 8.64225032 -0.00249778 12.96337974 -0.00795984 C21.38862373 -0.01677216 29.81383174 -0.01496878 38.23907704 -0.00913456 C45.09652617 -0.00458582 51.95396534 -0.00401891 58.81141555 -0.00618219 C59.79382985 -0.00648866 60.77624415 -0.00679513 61.78842859 -0.00711088 C63.78524415 -0.00775044 65.78205972 -0.00839887 67.77887528 -0.00905606 C86.42630653 -0.01473536 105.07371798 -0.00823922 123.72114598 0.00254467 C139.66364057 0.01147938 155.60610601 0.0099241 171.54860008 0.00070715 C190.13872937 -0.01003573 208.7288414 -0.01418773 227.31897336 -0.00806832 C229.30743106 -0.00743134 231.29588876 -0.00680259 233.28434646 -0.00618219 C234.26227475 -0.00587364 235.24020305 -0.00556509 236.24776553 -0.00524719 C243.08421907 -0.00353236 249.92066151 -0.00640891 256.75711334 -0.0111413 C265.10661577 -0.01679499 273.45608067 -0.01514056 281.80557889 -0.00457981 C286.05194225 0.00061707 290.29824343 0.00283817 294.54460609 -0.00387812 C338.68025438 -0.06765481 384.96585591 0.31225555 420.98097312 29.26144934 C421.48547996 29.66057531 421.9899868 30.05970129 422.50978172 30.47092199 C452.90640173 54.64606558 468.77838302 86.07933246 473.98097312 124.26144934 C476.23341109 144.21764558 476.27415967 164.2305278 476.24242246 184.28047621 C476.23781849 188.60160878 476.24492024 192.92272653 476.2503823 197.24385595 C476.25919462 205.66909994 476.25739124 214.09430795 476.25155702 222.51955325 C476.24700828 229.37700238 476.24644137 236.23444155 476.24860466 243.09189177 C476.24891112 244.07430607 476.24921759 245.05672037 476.24953334 246.0689048 C476.2501729 248.06572037 476.25082133 250.06253593 476.25147852 252.0593515 C476.25715782 270.70678274 476.25066168 289.3541942 476.23987779 308.00162219 C476.23094308 323.94411678 476.23249836 339.88658223 476.24171531 355.82907629 C476.25245819 374.41920558 476.25661019 393.00931761 476.25049078 411.59944957 C476.2498538 413.58790727 476.24922506 415.57636497 476.24860466 417.56482267 C476.2482961 418.54275097 476.24798755 419.52067926 476.24766965 420.52824174 C476.24595482 427.36469529 476.24883137 434.20113773 476.25356376 441.03758955 C476.25921745 449.38709198 476.25756302 457.73655689 476.24700227 466.08605511 C476.2418054 470.33241846 476.2395843 474.57871964 476.24630058 478.8250823 C476.31007727 522.96073059 475.93016691 569.24633212 446.98097312 605.26144934 C446.58184715 605.76595617 446.18272117 606.27046301 445.77150047 606.79025793 C421.59635688 637.18687795 390.16309 653.05885924 351.98097312 658.26144934 C332.02477688 660.5138873 312.01189466 660.55463588 291.96194625 660.52289867 C287.64081368 660.5182947 283.31969593 660.52539645 278.99856651 660.53085852 C270.57332252 660.53967083 262.14811451 660.53786746 253.72286921 660.53203323 C246.86542008 660.5274845 240.00798091 660.52691758 233.1505307 660.52908087 C232.1681164 660.52938733 231.18570209 660.5296938 230.17351766 660.53000955 C228.17670209 660.53064911 226.17988653 660.53129754 224.18307097 660.53195474 C205.53563972 660.53763403 186.88822826 660.5311379 168.24080027 660.520354 C152.29830568 660.51141929 136.35584024 660.51297457 120.41334617 660.52219152 C101.82321688 660.53293441 83.23310485 660.5370864 64.64297289 660.530967 C62.65451519 660.53033001 60.66605749 660.52970127 58.67759979 660.52908087 C57.6996715 660.52877232 56.7217432 660.52846377 55.71418072 660.52814586 C48.87772718 660.52643104 42.04128473 660.52930758 35.20483291 660.53403997 C26.85533048 660.53969366 18.50586557 660.53803923 10.15636735 660.52747849 C5.910004 660.52228161 1.66370282 660.52006051 -2.58265984 660.52677679 C-46.71830813 660.59055348 -93.00390966 660.21064312 -129.01902688 631.26144934 C-129.52353371 630.86232336 -130.02804055 630.46319738 -130.54783547 630.05197668 C-160.94445549 605.8768331 -176.81643677 574.44356622 -182.01902688 536.26144934 C-184.27146484 516.30525309 -184.31221342 496.29237087 -184.28047621 476.24242246 C-184.27587224 471.92128989 -184.28297399 467.60017214 -184.28843606 463.27904272 C-184.29724837 454.85379873 -184.29544499 446.42859072 -184.28961077 438.00334542 C-184.28506204 431.14589629 -184.28449512 424.28845712 -184.28665841 417.43100691 C-184.28711811 415.95738546 -184.28711811 415.95738546 -184.28758709 414.45399388 C-184.28822665 412.45717831 -184.28887508 410.46036274 -184.28953227 408.46354718 C-184.29521157 389.81611593 -184.28871544 371.16870448 -184.27793154 352.52127648 C-184.26899683 336.57878189 -184.27055211 320.63631645 -184.27976906 304.69382238 C-184.29051194 286.10369309 -184.29466394 267.51358106 -184.28854454 248.9234491 C-184.28790755 246.9349914 -184.28727881 244.9465337 -184.28665841 242.958076 C-184.28634986 241.98014771 -184.2860413 241.00221941 -184.2857234 239.99465693 C-184.28400858 233.15820339 -184.28688512 226.32176095 -184.29161751 219.48530912 C-184.2972712 211.1358067 -184.29561677 202.78634179 -184.28505602 194.43684357 C-184.27985915 190.19048021 -184.27763805 185.94417903 -184.28435433 181.69781637 C-184.34813102 137.56216808 -183.96822066 91.27656656 -155.01902688 55.26144934 C-154.6199009 54.7569425 -154.22077492 54.25243567 -153.80955422 53.73264074 C-129.63441064 23.33602073 -98.20114375 7.46403944 -60.01902688 2.26144934 C-40.06283063 0.00901137 -20.04994841 -0.03173721 0 0 Z " fill="#D1F94B" transform="translate(184.0190268754959,-0.26144933700561523)"/>
<path d="M0 0 C24.75 0 49.5 0 75 0 C74.38619543 6.75185031 73.74453143 13.22835759 72.55101013 19.85742188 C72.40723137 20.67733077 72.26345262 21.49723967 72.11531693 22.34199429 C71.63903785 25.05169058 71.15632816 27.76019867 70.67358398 30.46875 C70.32821491 32.42600091 69.98325528 34.38332411 69.63867188 36.3407135 C68.8992291 40.53605575 68.15694581 44.73088165 67.41241264 48.92532349 C66.23569632 55.55478238 65.06553665 62.1853884 63.89625549 68.81616211 C61.83717494 80.48793253 59.77252029 92.15871172 57.70666504 103.82928467 C54.59154588 121.4278715 51.48119038 139.02729995 48.3754831 156.62755013 C47.21145238 163.22299451 46.04463529 169.81793818 44.87561214 176.41249943 C44.150771 180.50406421 43.42799722 184.59599225 42.70575714 188.68801689 C42.36963979 190.58974442 42.03263096 192.49131462 41.69468117 194.39271736 C41.23478033 196.98088651 40.77800226 199.56958776 40.32200623 202.15844727 C40.18650515 202.91650414 40.05100408 203.674561 39.91139692 204.45558929 C39.40448277 207.34902406 39 210.05566506 39 213 C39.84820312 212.26136719 40.69640625 211.52273438 41.5703125 210.76171875 C48.18932846 205.02714438 54.88814089 199.45106582 61.80810547 194.08349609 C66.43703154 190.47918521 70.92194609 186.72778576 75.38256836 182.91821289 C79.37305657 179.5144713 83.43416675 176.21619407 87.54296875 172.95703125 C93.09280455 168.5365738 98.55871375 164.01084067 104.03515625 159.5 C105.50275391 158.2934375 105.50275391 158.2934375 107 157.0625 C107.886875 156.33160156 108.77375 155.60070312 109.6875 154.84765625 C112 153 112 153 115 151 C115.67011662 148.60405124 116.14748914 146.36964787 116.54296875 143.92578125 C116.67217712 143.19170044 116.8013855 142.45761963 116.93450928 141.70129395 C117.36442422 139.24031347 117.77583388 136.77659354 118.1875 134.3125 C118.48985678 132.56125005 118.79334799 130.81019563 119.09790039 129.05932617 C119.91399478 124.34648621 120.71377065 119.63102826 121.50854492 114.91455078 C122.31887425 110.10893154 123.13653189 105.3045581 123.953125 100.5 C124.94991217 94.63276829 125.94559949 88.76535933 126.93701172 82.8972168 C130.03037166 64.62612727 133.33632676 46.39584159 136.69145203 28.17124939 C137.84129858 21.91068378 138.95301314 15.64383358 140.03327942 9.37088013 C140.58411962 6.2036778 141.21941385 3.1223446 142 0 C166.75 0 191.5 0 217 0 C217 8.99998384 217 8.99998384 216.19906998 13.50605679 C216.0204002 14.530686 215.84173043 15.55531522 215.65764642 16.6109938 C215.45804559 17.71457688 215.25844475 18.81815995 215.05279541 19.95518494 C214.84327295 21.14494558 214.63375049 22.33470623 214.41787887 23.56052023 C213.83767517 26.84716407 213.25135798 30.13260849 212.66240072 33.41768777 C212.02746272 36.96795701 211.40050794 40.5196367 210.77258301 44.07115173 C209.68351073 50.22466443 208.58946734 56.37727643 207.49207306 62.52931023 C205.90064604 71.45117736 204.31726514 80.37445802 202.73587653 89.29810924 C200.16342926 103.81319092 197.58516133 118.32723215 195.00292969 132.84057617 C192.50603666 146.8743831 190.01078598 160.90847962 187.51855469 174.94311523 C187.36549253 175.80505507 187.21243037 176.6669949 187.05472997 177.55505412 C185.37863631 186.99400353 183.70316494 196.43306326 182.02834702 205.87223911 C181.88047742 206.70561459 181.73260783 207.53899007 181.58025734 208.39761936 C180.98852207 211.7326063 180.39679055 215.06759391 179.80513427 218.40259487 C178.08273704 228.11115213 176.35847896 237.81937433 174.63070294 247.52697588 C173.54358229 253.63525362 172.45786301 259.74377933 171.37317637 265.85248976 C170.75001487 269.36157906 170.12616833 272.87054268 169.50034332 276.37915802 C166.80567062 291.48890624 164.2140338 306.60691109 161.83694077 321.77008915 C160.74552117 328.68768433 159.45623829 335.56216698 158.125 342.4375 C157.61036547 345.12705346 157.0993783 347.8172885 156.58984375 350.5078125 C156.46070084 351.1892482 156.33155792 351.8706839 156.19850159 352.57276917 C154.33622853 362.45446955 152.62866476 372.36456752 150.91650391 382.27319336 C150.73461769 383.31825546 150.73461769 383.31825546 150.54905701 384.38442993 C150.22065475 386.27136423 149.89478474 388.15873875 149.5690918 390.04614258 C149 393 149 393 148 396 C123.25 396 98.5 396 73 396 C74.12376745 380.26725566 74.12376745 380.26725566 75.3125 374.1484375 C75.44198532 373.46620621 75.57147064 372.78397491 75.70487976 372.08106995 C75.98424601 370.61159547 76.26695905 369.14275374 76.55282593 367.67453003 C77.35169949 363.56643462 78.1222514 359.45300745 78.89453125 355.33984375 C79.14515068 354.00872307 79.14515068 354.00872307 79.40083313 352.65071106 C81.82960195 339.67333513 84.0275109 326.65440847 86.25073242 313.64056396 C88.24408547 301.97336541 90.2909387 290.32442066 92.53649902 278.70295715 C94.22617912 269.91719646 95.74478999 261.10427342 97.23754883 252.28320312 C97.69572358 249.57641706 98.15721573 246.87021088 98.61914062 244.1640625 C98.91685513 242.41409455 99.21438824 240.66409573 99.51171875 238.9140625 C99.6471257 238.11924469 99.78253265 237.32442688 99.92204285 236.50552368 C100.68143371 232.01136597 101.37560888 227.51494336 102 223 C100.98292969 223.94359375 100.98292969 223.94359375 99.9453125 224.90625 C94.71571229 229.71574382 89.43683037 234.35270974 83.8515625 238.75 C80.27228845 241.57419432 76.72754838 244.43936884 73.1875 247.3125 C72.50131592 247.869375 71.81513184 248.42625 71.1081543 249 C66.18903259 253.00435393 61.33508402 257.07918509 56.50585938 261.19116211 C53.43590578 263.80014596 50.33804235 266.36400202 47.1875 268.875 C46.40503906 269.51695312 45.62257813 270.15890625 44.81640625 270.8203125 C42.57170893 272.55754011 40.32856317 274.11844181 37.96484375 275.6796875 C36.51786006 276.70260307 35.07124655 277.72604249 33.625 278.75 C32.9343042 279.1713623 32.2436084 279.59272461 31.53198242 280.02685547 C26.06323389 284.02641797 25.13311597 288.59677278 24.02197266 294.9296875 C23.8569286 295.81077053 23.69188454 296.69185356 23.52183914 297.59963608 C23.00142891 300.39752866 22.49972233 303.19834601 22 306 C21.6791045 307.75470743 21.35751239 309.50928762 21.03518677 311.26373291 C20.03927989 316.71908094 19.07337454 322.17956431 18.109375 327.640625 C17.75655871 329.6298963 17.40354784 331.6191331 17.050354 333.6083374 C16.13442632 338.76984246 15.2210896 343.93180249 14.30834961 349.09387207 C13.20562406 355.32714032 12.0995789 361.55982034 10.99411011 367.79260254 C9.32690593 377.19462766 7.66383882 386.59737595 6 396 C-19.08 396 -44.16 396 -70 396 C-68.79866636 387.59066451 -67.58158588 379.2375612 -66.09692383 370.88256836 C-65.9146137 369.84584834 -65.73230356 368.80912832 -65.54446888 367.74099255 C-64.93413912 364.27356035 -64.32057321 360.80670889 -63.70703125 357.33984375 C-63.25593899 354.78094868 -62.80504869 352.222018 -62.3543396 349.66305542 C-61.23794228 343.32678599 -60.11909762 336.990951 -58.99943042 330.65525866 C-57.66293088 323.09221255 -56.32853832 315.52879516 -54.99426663 307.96535575 C-53.06599118 297.03487887 -51.13716806 286.10449889 -49.20713806 275.17433167 C-44.834834 250.41165599 -40.47189782 225.64734035 -36.11318582 200.88226873 C-35.78809474 199.035193 -35.78809474 199.035193 -35.45643616 197.15080261 C-35.23854795 195.91281943 -35.02065974 194.67483625 -34.79616886 193.39933842 C-31.92035958 177.06055147 -29.04202475 160.72220932 -26.16341305 144.3839159 C-23.9562108 131.85596876 -21.75003819 119.32784203 -19.54629517 106.79928589 C-17.64511673 95.99096006 -15.74168934 85.18303308 -13.83552957 74.3755846 C-12.85014472 68.78828954 -11.86579761 63.20081684 -10.88422775 57.61285019 C-9.97402778 52.4313334 -9.06082701 47.25035417 -8.14539373 42.06975949 C-7.81510413 40.19763432 -7.4858596 38.32532438 -7.15783179 36.45280159 C-6.7059844 33.87443911 -6.25010664 31.29681676 -5.79338074 28.71931458 C-5.67034132 28.01163826 -5.5473019 27.30396195 -5.42053401 26.5748409 C-3.83194153 17.66568066 -1.86684062 8.86749293 0 0 Z " fill="#073134" transform="translate(256,133)"/>
<path d="M0 0 C0.66 0.33 1.32 0.66 2 1 C0.48318506 4.81346128 -1.74453026 6.67252097 -4.9375 9.1875 C-6.42830078 10.37472656 -6.42830078 10.37472656 -7.94921875 11.5859375 C-8.95597656 12.38257813 -9.96273438 13.17921875 -11 14 C-12.75267261 15.43424021 -14.50271051 16.87170657 -16.25 18.3125 C-23.11854175 23.93493475 -30.06067155 29.46539391 -37 35 C-37.66 34.67 -38.32 34.34 -39 34 C-39 33.34 -39 32.68 -39 32 C-37.19921875 30.37109375 -37.19921875 30.37109375 -34.6875 28.4375 C-33.7696875 27.72078125 -32.851875 27.0040625 -31.90625 26.265625 C-30.9471875 25.51796875 -29.988125 24.7703125 -29 24 C-22.41996043 18.69726223 -15.93526142 13.28545183 -9.50268555 7.80541992 C-6.37802046 5.1470789 -3.21676815 2.54611354 0 0 Z " fill="#224C41" transform="translate(320,383)"/>
<path d="M0 0 C0.33 0 0.66 0 1 0 C0.57869897 10.9748918 -1.38735195 21.59501067 -3.34814453 32.37695312 C-4.09064214 36.50379376 -4.81043583 40.6342786 -5.52734375 44.765625 C-5.9273677 47.06308362 -6.32771388 49.36048584 -6.72817993 51.65786743 C-6.99045197 53.16455502 -7.25200056 54.67136875 -7.51278687 56.17831421 C-10.07874872 70.98285842 -10.07874872 70.98285842 -12 78 C-12.33 78 -12.66 78 -13 78 C-12.53408568 68.12944857 -11.18933703 58.80300794 -9.1875 49.125 C-8.63938201 46.40726895 -8.0983328 43.68815619 -7.55859375 40.96875 C-7.42446075 40.29582916 -7.29032776 39.62290833 -7.15213013 38.92959595 C-5.69514509 31.56437769 -4.47064876 24.16481729 -3.29370117 16.75048828 C-2.39022935 11.11026451 -1.29203902 5.56483472 0 0 Z " fill="#132A1E" transform="translate(423,411)"/>
<path d="M0 0 C0.33 0 0.66 0 1 0 C0.47299248 8.55065234 -0.49141939 16.88882426 -1.99609375 25.3203125 C-2.28650291 26.98004593 -2.28650291 26.98004593 -2.58277893 28.67330933 C-2.98901073 30.98457712 -3.39837596 33.29529626 -3.81079102 35.60546875 C-4.44183652 39.14935344 -5.05837344 42.69556575 -5.67382812 46.2421875 C-6.07205356 48.4975484 -6.47111175 50.75276246 -6.87109375 53.0078125 C-7.05449814 54.06710968 -7.23790253 55.12640686 -7.42686462 56.21780396 C-7.60367264 57.19667572 -7.78048065 58.17554749 -7.96264648 59.18408203 C-8.11507309 60.04421906 -8.26749969 60.90435608 -8.42454529 61.79055786 C-9 64 -9 64 -11 67 C-11.21536342 61.83127789 -10.97648815 57.3975426 -9.56274414 52.37915039 C-8.85139808 49.37174589 -8.49624065 46.37629028 -8.12109375 43.30859375 C-7.11874635 35.44949284 -5.77557104 27.66949822 -4.34057617 19.87915039 C-3.9296717 17.64493508 -3.52606959 15.40947729 -3.12304688 13.17382812 C-2.86240283 11.74471433 -2.6013513 10.31567478 -2.33984375 8.88671875 C-1.98974243 6.97185669 -1.98974243 6.97185669 -1.63256836 5.01831055 C-1 2 -1 2 0 0 Z " fill="#0D241D" transform="translate(326,154)"/>
<path d="M0 0 C2.46734744 3.70102116 2.04785186 4.63616518 1.34765625 8.92578125 C1.14672363 10.1782666 0.94579102 11.43075195 0.73876953 12.72119141 C0.4941381 14.14774057 0.2477924 15.5739965 0 17 C-0.13126282 17.76826111 -0.26252563 18.53652222 -0.39776611 19.32806396 C-1.26817393 24.40810842 -2.16940816 29.48217679 -3.08666992 34.55395508 C-3.56853198 37.22088481 -4.04523225 39.88870398 -4.52148438 42.55664062 C-4.82782231 44.26047112 -5.13445187 45.96424921 -5.44140625 47.66796875 C-5.58308731 48.46164352 -5.72476837 49.2553183 -5.8707428 50.07304382 C-6.4267648 53.13331263 -7.01492682 56.04478045 -8 59 C-8.66 59 -9.32 59 -10 59 C-8.36444855 46.46987375 -6.11088415 34.05879297 -3.875 21.625 C-3.49847545 19.52087313 -3.12217169 17.41670674 -2.74609375 15.3125 C-1.83327203 10.20787447 -0.91747114 5.10379183 0 0 Z " fill="#0F261D" transform="translate(458,209)"/>
<path d="M0 0 C0.66 0.33 1.32 0.66 2 1 C0.45759355 5.28888502 -2.79420962 7.43536487 -6.3125 10.0625 C-7.57326646 11.02648923 -8.83233742 11.99269934 -10.08984375 12.9609375 C-10.73421387 13.4569043 -11.37858398 13.95287109 -12.04248047 14.46386719 C-15.2212252 16.95833736 -18.30095462 19.56581099 -21.375 22.1875 C-21.94001221 22.66904541 -22.50502441 23.15059082 -23.0871582 23.64672852 C-24.39319903 24.76242844 -25.69688724 25.88088156 -27 27 C-27.99 26.34 -28.98 25.68 -30 25 C-22.8487933 18.9174951 -15.67054983 12.87746163 -8.390625 6.94921875 C-5.57561635 4.65397477 -2.78407384 2.33260241 0 0 Z " fill="#244B3F" transform="translate(353,356)"/>
<path d="M0 0 C0.33 0 0.66 0 1 0 C0.55717468 10.89350292 -1.72999503 21.36773209 -4 32 C-4.33 32 -4.66 32 -5 32 C-4.66344667 23.92272005 -4.00140408 16.07222736 -2.5 8.125 C-2.36940186 7.42955078 -2.23880371 6.73410156 -2.10424805 6.01757812 C-1.13830336 1.13830336 -1.13830336 1.13830336 0 0 Z " fill="#0C241E" transform="translate(310,246)"/>
<path d="M0 0 C0.66 0 1.32 0 2 0 C1.69095829 2.27130656 1.37765093 4.54203305 1.0625 6.8125 C0.88847656 8.07707031 0.71445312 9.34164062 0.53515625 10.64453125 C0 14 0 14 -1 17 C-1.66 17 -2.32 17 -3 17 C-2.69188262 14.54104382 -2.37871012 12.08291693 -2.0625 9.625 C-1.97548828 8.92632812 -1.88847656 8.22765625 -1.79882812 7.5078125 C-1.11328125 2.2265625 -1.11328125 2.2265625 0 0 Z " fill="#0E261F" transform="translate(313,227)"/>
<path d="M0 0 C0.66 0 1.32 0 2 0 C1.85879286 1.93784265 1.71187127 3.87526955 1.5625 5.8125 C1.48128906 6.89144531 1.40007812 7.97039062 1.31640625 9.08203125 C1 12 1 12 0 15 C-0.66 15 -1.32 15 -2 15 C-1.47462276 9.9697924 -0.89405214 4.98114761 0 0 Z " fill="#0B231E" transform="translate(434,344)"/>
<path d="M0 0 C0.33 0 0.66 0 1 0 C0.85879286 1.93784265 0.71187127 3.87526955 0.5625 5.8125 C0.48128906 6.89144531 0.40007812 7.97039062 0.31640625 9.08203125 C0 12 0 12 -1 15 C-1.66 15 -2.32 15 -3 15 C-2.22095672 4.44191344 -2.22095672 4.44191344 0 0 Z " fill="#0B231E" transform="translate(438,327)"/>
</svg>
